# xmcd
#
# Track frame offsets:
#	150
#	19026
#	35017
#	53869
#	68932
#	86439
#	101376
#	116504
#	135436
#	149231
#	165954
#	184447
#
# Disc length: 2729 seconds
#
# Revision: 1
# Processed by: cddbd v1.5.2PL0 Copyright (c) Steve Scherf et al.
# Submitted via: audiograbber 1.83.01
#
DISCID=a40aa70c
DTITLE=William Bell - Midnight Trains
DYEAR=2011
DGENRE=Blues
TTITLE0=Midnight trains
TTITLE1=I cant get you out of my heart
TTITLE2=sometimes
TTITLE3=the lucky old moon
TTITLE4=drizzle of the rain
TTITLE5=the man I am
TTITLE6=train to nowhere
TTITLE7=coat of armor
TTITLE8=riding on heartaches
TTITLE9=old millhouse
TTITLE10=without love
TTITLE11=mary magdalene
EXTD=
EXTT0=
EXTT1=
EXTT2=
EXTT3=
EXTT4=
EXTT5=
EXTT6=
EXTT7=
EXTT8=
EXTT9=
EXTT10=
EXTT11=
PLAYORDER=
